/* XPM */
static char *result[] = {
/* columns rows colors chars-per-pixel */
"64 64 13 1 ",
"  c #393C40",
". c #4C5054",
"X c #5E6366",
"o c #696E70",
"O c #757A7C",
"+ c #7E8183",
"@ c #848A8D",
"# c #8D9395",
"$ c #959B9D",
"% c #9CA2A4",
"& c #A9ADAB",
"* c #B6B9B7",
"= c #C4C5C4",
/* pixels */
"%#&%&%&%$&***%&#&%@@#.*$@$%@$#$%$%&&%#$$##$@o.&%%#&%&%&%$&***%&#",
"O@$%$&&$&***&%@$%*+@# &@$@%&#$&#$@&&%&&$&&$@o &+O@$%$&&$&***&%@$",
"#@$$%%&&***=#&@#&*&&$ &%@$%%%%$$#=$%$###%#@%@ %+#@$$%%&&***=#&@#",
"@@$$$%#@*&@*&$#&%%&&@ %%&##%%%$@#&&&@$#$$&$+@ $@@@$$$%#@*&@*&$#&",
"@$#%%#$$$#$$&$$%%%$%@ &$%&$$@&&&$$&&##%&$O+X@ #@@$#%%#$$$#$$&$$%",
"OoO@OoOOOOOoO@OoooOX ..oOO@#####OOO@OOOoooX.. o.OoO@OoOOOOOoO@Oo",
"...   ..    .   .   .X...  ..  .    ...  ..   .....   ..    .   ",
"**&&&&&&&  @&********=******&&&%o O&&&@%&*********&&&&&&&  @&***",
"$%%$@@@$% #O&$%$$%*&&&&&%%&%@@$$O &++@++@&&&&*%%$%%$@@@$% #O&$%$",
"&&%%%@%$% &%$$$$$&*&&%&&&&*&$%%$#.&+@%@@%*****%$&&%%%@%$% &%$$$$",
"&$%$%$%%%.*%&%#$#&&&&&$#%&&&%$O%@.*@%%$%****&%%*&$%$%$%%%.*%&%#$",
"*$%&$%%$%.*&&%$$$%%$#&%#%&&&$$O%@.&$$$%%$***%%%&*$%&$%%$%.*&&%$$",
"&#$$##%#$.&%&$#$@$###%@#&&&%$O@$@.&$$$%%$***$$$%&#$$##%#$.&%&$#$",
"&%$$$&@$$.&&$##%&#%%%%$$%&%%%@$@@.&$*%*$&*&&%&$%&%$$$&@$$.&&$##%",
"&**&%&%@%.&&&&%%%%*&*%$%&#$#&%@o@.$%$%&*&***&%&%&**&%&%@%.&&&&%%",
"&&*&&&$$$.%**&%%%*=**&%&#@@&&$O%@.#%$$%&&%***&**&&*&&&$$$.%**&%%",
"&%&*&&$$# %&&&***==&**$$#%%#@&$+@.O%%%&%$%&&%#$%&%&*&&$$# %&&&**",
"OO@@@oOX   o##@OO@#$$$$###@OOooo X OOO@OOOoooXXoOO@@@oOX   o##@O",
" ...    XOX..    .       ...    XOX  ...  . .    ...    XOX..   ",
"*******************$O O$===================%O.O$****************",
"%$$#&&$*%#$#%%#&$O#&@ =$#&&%%&&&*$&&#&#&&%%##.O*%$$#&&$*%#$#%%#&",
"#@#%$&&%&#@&%$#$#$$%#.=$@#%%&%%%%&&&###&$$%$@ $*#@#%$&&%&#@&%$#$",
"##%%&%*&*&&%&%&%%$$*$ *$@@&&%&&%%@#$%&%$$OO$%.&*##%%&%*&*&&%&%&%",
"$$%&&&&***%%*$&*&*%&&.*$@@%&$&&&*##$$&#$$@$@#.*%$$%&&&&***%%*$&*",
"#$&***&***%%*$****%%&.*@OO&&$&&&*&%$$&@%$O$O@.*##$&***&***%%*$**",
"$#&&*&&&%%%%&&$**$$&#.&O%@#%&&%%*$$#$#@$$OO$%.&#$#&&*&&&%%%%&&$*",
"@#&$$&*$%%$##@$&%%#$@.&$##**%&****&&%##$%%%$&.%&@#&$$&*$%%$##@$&",
"$$%$$%%&%%##%@$#$#@+@.&$%%@&&&&*%%*&&&&&%%*@#.#$$$%$$%%&%%##%@$#",
"=======&&&&&=======*O.O&*================**&. .O=======&&&&&====",
"%&&&$&*&%$$$%&**=&&&%.*o+@%%%@$$%%&&***$&*&%O.*%%&&&$&*&%$$$%&**",
"#$$$##&*&%&$&=*%&*&$$.=+@%@%@&%%&%%%**&&&&&%@.*$#$$$##&*&%&$&=*%",
"@@@@%$#%&&&**&*%%&&#$.=%$$%$$&&&&*&&&$$$%$%%@.&O@@@@%$#%&&&**&*%",
"%$@@$##%&&&**&%$$&$@#.=#%$#$#$$%%*%%%###$#$%@.&%%$@@$##%&&&**&%$",
"%#&%&%&%$&***%&#&%@@#.*$@$%@$#$%$%&&%#$$##$@o.&%%#&%&%&%$&***%&#",
"O@$%$&&$&***&%@$%*+@# &@$@%&#$&#$@&&%&&$&&$@o &+O@$%$&&$&***&%@$",
"#@$$%%&&***=#&@#&*&&$ &%@$%%%%$$#=$%$###%#@%@ %+#@$$%%&&***=#&@#",
"@@$$$%#@*&@*&$#&%%&&@ %%&##%%%$@#&&&@$#$$&$+@ $@@@$$$%#@*&@*&$#&",
"@$#%%#$$$#$$&$$%%%$%@ &$%&$$@&&&$$&&##%&$O+X@ #@@$#%%#$$$#$$&$$%",
"OoO@OoOOOOOoO@OoooOX ..oOO@#####OOO@OOOoooX.. o.OoO@OoOOOOOoO@Oo",
"...   ..    .   .   .X...  ..  .    ...  ..   .....   ..    .   ",
"**&&&&&&&  @&********=******&&&%o O&&&@%&*********&&&&&&&  @&***",
"$%%$@@@$% #O&$%$$%*&&&&&%%&%@@$$O &++@++@&&&&*%%$%%$@@@$% #O&$%$",
"&&%%%@%$% &%$$$$$&*&&%&&&&*&$%%$#.&+@%@@%*****%$&&%%%@%$% &%$$$$",
"&$%$%$%%%.*%&%#$#&&&&&$#%&&&%$O%@.*@%%$%****&%%*&$%$%$%%%.*%&%#$",
"*$%&$%%$%.*&&%$$$%%$#&%#%&&&$$O%@.&$$$%%$***%%%&*$%&$%%$%.*&&%$$",
"&#$$##%#$.&%&$#$@$###%@#&&&%$O@$@.&$$$%%$***$$$%&#$$##%#$.&%&$#$",
"&%$$$&@$$.&&$##%&#%%%%$$%&%%%@$@@.&$*%*$&*&&%&$%&%$$$&@$$.&&$##%",
"&**&%&%@%.&&&&%%%%*&*%$%&#$#&%@o@.$%$%&*&***&%&%&**&%&%@%.&&&&%%",
"&&*&&&$$$.%**&%%%*=**&%&#@@&&$O%@.#%$$%&&%***&**&&*&&&$$$.%**&%%",
"&%&*&&$$# %&&&***==&**$$#%%#@&$+@.O%%%&%$%&&%#$%&%&*&&$$# %&&&**",
"OO@@@oOX   o##@OO@#$$$$###@OOooo X OOO@OOOoooXXoOO@@@oOX   o##@O",
" ...    XOX..    .       ...    XOX  ...  . .    ...    XOX..   ",
"*******************$O O$===================%O.O$****************",
"%$$#&&$*%#$#%%#&$O#&@ =$#&&%%&&&*$&&#&#&&%%##.O*%$$#&&$*%#$#%%#&",
"#@#%$&&%&#@&%$#$#$$%#.=$@#%%&%%%%&&&###&$$%$@ $*#@#%$&&%&#@&%$#$",
"##%%&%*&*&&%&%&%%$$*$ *$@@&&%&&%%@#$%&%$$OO$%.&*##%%&%*&*&&%&%&%",
"$$%&&&&***%%*$&*&*%&&.*$@@%&$&&&*##$$&#$$@$@#.*%$$%&&&&***%%*$&*",
"#$&***&***%%*$****%%&.*@OO&&$&&&*&%$$&@%$O$O@.*##$&***&***%%*$**",
"$#&&*&&&%%%%&&$**$$&#.&O%@#%&&%%*$$#$#@$$OO$%.&#$#&&*&&&%%%%&&$*",
"@#&$$&*$%%$##@$&%%#$@.&$##**%&****&&%##$%%%$&.%&@#&$$&*$%%$##@$&",
"$$%$$%%&%%##%@$#$#@+@.&$%%@&&&&*%%*&&&&&%%*@#.#$$$%$$%%&%%##%@$#",
"@&@@%&%%$%$%%$#%$$++@ O@@@%$$$%%&%%%#%&%#@o#O O@@&@@%&%%$%$%%$#%",
"XoooX..XX.XXXX..XX..   ..XXooooXXXXXoooOOoOX   .XoooX..XX.XXXX..",
"...  ...  .. ..     ... .   .   .  .        .XX....  ...  .. .. "
};
